<?xml version="1.0" encoding="UTF-8"?>
<!DOCTYPE svg PUBLIC "-//W3C//DTD SVG 1.1//EN" "http://www.w3.org/Graphics/SVG/1.1/DTD/svg11.dtd">
<!-- Creator: CorelDRAW -->
<svg xmlns="http://www.w3.org/2000/svg" xml:space="preserve" width="12.693in" height="7.08333in" style="shape-rendering:geometricPrecision; text-rendering:geometricPrecision; image-rendering:optimizeQuality; fill-rule:evenodd; clip-rule:evenodd"
viewBox="0 0 12.693 7.08333"
 xmlns:xlink="http://www.w3.org/1999/xlink">
 <defs>
  <style type="text/css">
   <![CDATA[
    .str0 {stroke:#E6E7E8;stroke-width:0.00694488}
    .fil1 {fill:none}
    .fil6 {fill:#373435}
    .fil4 {fill:#ACA442}
    .fil7 {fill:#F37135}
    .fil2 {fill:#FEFEFE}
    .fil3 {fill:#FFF212}
    .fil19 {fill:#3F4343}
    .fil0 {fill:#282829}
    .fil12 {fill:#7CC24D}
    .fil5 {fill:#FBE222}
    .fil24 {fill:#FEFEFE;fill-opacity:0.760784}
    .fil14 {fill:url(#id8)}
    .fil9 {fill:url(#id9)}
    .fil21 {fill:url(#id10)}
    .fil23 {fill:url(#id11)}
    .fil26 {fill:url(#id12)}
    .fil11 {fill:url(#id13)}
    .fil16 {fill:url(#id14)}
    .fil18 {fill:url(#id15)}
    .fil13 {fill:url(#id16)}
    .fil8 {fill:url(#id17)}
    .fil20 {fill:url(#id18)}
    .fil22 {fill:url(#id19)}
    .fil25 {fill:url(#id20)}
    .fil10 {fill:url(#id21)}
    .fil15 {fill:url(#id22)}
    .fil17 {fill:url(#id23)}
   ]]>
  </style>
   <clipPath id="id0">
    <path d="M1.97844 0l8.73611 0 0 7.08333 -8.73611 0 0 -7.08333z"/>
   </clipPath>
    <clipPath id="id1">
     <path d="M1.97844 0l8.73611 0 0 7.08333 -8.73611 0 0 -7.08333z"/>
    </clipPath>
    <clipPath id="id2">
     <path d="M1.97844 0l8.73611 0 0 7.08333 -8.73611 0 0 -7.08333z"/>
    </clipPath>
     <clipPath id="id3">
      <path d="M6.60431 4.99016l1.78602 0 0 0.108339 -1.78602 0 0 -0.108339z"/>
     </clipPath>
     <clipPath id="id4">
      <path d="M6.60431 4.19863l1.78602 0 0 0.108339 -1.78602 0 0 -0.108339z"/>
     </clipPath>
     <clipPath id="id5">
      <path d="M6.60431 3.40709l1.78602 0 0 0.108339 -1.78602 0 0 -0.108339z"/>
     </clipPath>
     <clipPath id="id6">
      <path d="M6.60431 2.49731l1.78602 0 0 0.108343 -1.78602 0 0 -0.108343z"/>
     </clipPath>
     <clipPath id="id7">
      <path d="M6.60431 5.66346l1.78602 0 0 0.108339 -1.78602 0 0 -0.108339z"/>
     </clipPath>
  <linearGradient id="id8" gradientUnits="userSpaceOnUse" x1="6.70928" y1="4.58944" x2="6.98424" y2="4.58944">
   <stop offset="0" style="stop-color:#588A49"/>
   <stop offset="0.490196" style="stop-color:#6AA64B"/>
   <stop offset="1" style="stop-color:#7CC24D"/>
  </linearGradient>
  <linearGradient id="id9" gradientUnits="userSpaceOnUse" x1="6.70928" y1="5.38098" x2="6.98424" y2="5.38098">
   <stop offset="0" style="stop-color:#B8B341"/>
   <stop offset="0.490196" style="stop-color:#DBD22A"/>
   <stop offset="1" style="stop-color:#FFF212"/>
  </linearGradient>
  <linearGradient id="id10" gradientUnits="userSpaceOnUse" x1="8.8476" y1="2.44581" x2="9.24077" y2="2.44581">
   <stop offset="0" style="stop-color:#578B49"/>
   <stop offset="1" style="stop-color:#7CC24D"/>
  </linearGradient>
  <linearGradient id="id11" gradientUnits="userSpaceOnUse" x1="8.77164" y1="3.1113" x2="9.24989" y2="3.1113">
   <stop offset="0" style="stop-color:#A24D36"/>
   <stop offset="1" style="stop-color:#F37135"/>
  </linearGradient>
  <linearGradient id="id12" gradientUnits="userSpaceOnUse" x1="8.8476" y1="4.47545" x2="9.24077" y2="4.47545">
   <stop offset="0" style="stop-color:#AA4D36"/>
   <stop offset="1" style="stop-color:#F37135"/>
  </linearGradient>
  <linearGradient id="id13" gradientUnits="userSpaceOnUse" x1="6.60464" y1="5.03832" x2="6.87961" y2="5.03832">
   <stop offset="0" style="stop-color:#C8B73E"/>
   <stop offset="0.521569" style="stop-color:#E1CC30"/>
   <stop offset="1" style="stop-color:#FBE222"/>
  </linearGradient>
  <linearGradient id="id14" gradientUnits="userSpaceOnUse" x1="6.60464" y1="4.24679" x2="6.87961" y2="4.24679">
   <stop offset="0" style="stop-color:#588A49"/>
   <stop offset="0.670588" style="stop-color:#6AA64B"/>
   <stop offset="1" style="stop-color:#7CC24D"/>
  </linearGradient>
  <linearGradient id="id15" gradientUnits="userSpaceOnUse" x1="7.49732" y1="4.93464" x2="7.49732" y2="4.83429">
   <stop offset="0" style="stop-color:#20201E"/>
   <stop offset="1" style="stop-color:#5E6668"/>
  </linearGradient>
  <linearGradient id="id16" gradientUnits="userSpaceOnUse" xlink:href="#id8" x1="8.00894" y1="4.58944" x2="8.28391" y2="4.58944">
  </linearGradient>
  <linearGradient id="id17" gradientUnits="userSpaceOnUse" xlink:href="#id9" x1="8.00894" y1="5.38098" x2="8.28391" y2="5.38098">
  </linearGradient>
  <linearGradient id="id18" gradientUnits="userSpaceOnUse" xlink:href="#id10" x1="11.8101" y1="2.44581" x2="12.2033" y2="2.44581">
  </linearGradient>
  <linearGradient id="id19" gradientUnits="userSpaceOnUse" xlink:href="#id11" x1="11.8101" y1="3.1113" x2="12.2884" y2="3.1113">
  </linearGradient>
  <linearGradient id="id20" gradientUnits="userSpaceOnUse" xlink:href="#id12" x1="11.8101" y1="4.47545" x2="12.2033" y2="4.47545">
  </linearGradient>
  <linearGradient id="id21" gradientUnits="userSpaceOnUse" xlink:href="#id13" x1="8.11358" y1="5.03832" x2="8.38855" y2="5.03832">
  </linearGradient>
  <linearGradient id="id22" gradientUnits="userSpaceOnUse" xlink:href="#id14" x1="8.11358" y1="3.45525" x2="8.38855" y2="3.45525">
  </linearGradient>
  <linearGradient id="id23" gradientUnits="userSpaceOnUse" x1="5.97735" y1="1.7207" x2="7.87116" y2="1.84377">
   <stop offset="0" style="stop-color:#BDB741"/>
   <stop offset="0.101961" style="stop-color:#BDB741"/>
   <stop offset="0.478431" style="stop-color:#FFF212"/>
   <stop offset="0.890196" style="stop-color:#BCB540"/>
   <stop offset="1" style="stop-color:#BDB741"/>
  </linearGradient>
 </defs>
 <g id="Layer_x0020_1">
  <metadata id="CorelCorpID_0Corel-Layer"/>
  <polygon class="fil0" points="1.97844,0 10.7146,0 10.7146,7.08333 1.97844,7.08333 "/>
  <g style="clip-path:url(#id0)">
   <g id="_357435400">
   </g>
   <g style="clip-path:url(#id1)">
    <image id="_357435520" transform="matrix(1 0 0 1 -6.81711 4.11526)" x="6.3465" y="-4.23611" width="13.8889" height="7.77778" xlink:href="X10 logo-svg_Images\X10 logo-svg_ImgID1.png"/>
   </g>
   <g style="clip-path:url(#id2)">
   </g>
  </g>
  <polygon class="fil1" points="1.97844,0 10.7146,0 10.7146,7.08333 1.97844,7.08333 "/>
  <rect class="fil2 str0" x="9.44882e-005" width="12.6928" height="7.08333"/>
  <line class="fil1" x1="6.40876" y1="1.24559" x2="6.21559" y2= "1.04351" />
  <line class="fil1" x1="7.39517" y1="1.24559" x2="7.202" y2= "1.04351" />
  <g id="_359979240">
   <g>
    <path id="_359609288" class="fil3" d="M0.636217 1.81907c1.24122,1.28945 2.48243,2.57889 3.72365,3.86834 0.0735512,0.0643386 0.0727165,0.0696772 0.165504,0.0696772l1.06687 -0.0038937c-1.24187,-1.29313 -2.48374,-2.58628 -3.72561,-3.8794 -0.044563,-0.0464016 -0.055437,-0.0484961 -0.107402,-0.0487677 -0.374335,-0.0019685 -0.748677,-0.00397244 -1.12301,-0.00595669z"/>
    <path id="_359609000" class="fil3" d="M5.59827 1.82072c-1.23625,1.28591 -2.47249,2.57183 -3.70874,3.85775 -0.0835197,0.086874 -0.0679291,0.0887165 -0.199197,0.0882205l-1.05098 -0.00383465c1.2475,-1.30065 2.49501,-2.6013 3.74251,-3.90194 0.0401732,-0.0419016 0.041311,-0.0339685 0.0842992,-0.034189l1.1321 -0.006z"/>
    <polygon id="_359609120" class="fil3" points="2.05513,3.29259 4.17313,3.30298 4.16985,4.27209 2.05513,4.28705 "/>
    <polygon id="_359608472" class="fil3" points="2.35674,2.95904 3.87152,2.97735 3.86917,4.68474 2.35674,4.7111 "/>
    <path id="_359608232" class="fil4" d="M4.94268 2.19385l-1.09967 1.14712c-0.0811339,0.0845709 -0.126228,0.135917 -0.148512,0.172311 -0.0343898,-0.0644803 -0.037685,-0.0837953 0.148512,-0.27789 0.366555,-0.382398 0.733106,-0.764795 1.09966,-1.14719 0.108374,-0.000570866 0.101307,-3.14961e-005 3.93701e-006,0.10565zm-1.18608 1.65026c0.000956693,0.0165827 0.00148819,0.0343346 0.00148819,0.0534016 0,0.139827 -0.0288465,0.203504 -0.0485157,0.245531 -0.055311,-0.0884291 0.0343346,-0.0821772 0.0470276,-0.298933zm0.608736 1.58836l-0.73665 -0.769213c-0.306299,-0.319252 -0.142992,-0.0955079 -0.512366,-0.0955079 -0.396902,0 -0.210618,-0.249736 -0.547756,0.101685 -0.242004,0.25389 -0.484012,0.507783 -0.726016,0.761673 -0.0695551,0.0729724 -0.0682795,0.0555787 -0.152535,0.0557874l0.878551 -0.923039c0.337138,-0.351421 0.150854,-0.101685 0.547756,-0.101685 0.369374,0 0.206067,-0.223744 0.512366,0.0955079 0.299878,0.313051 0.599752,0.626106 0.89963,0.939157 -0.105016,-3.54331e-005 -0.0961969,0.0053622 -0.16298,-0.0643661zm-1.84962 -1.31208c-0.0170748,-0.0405512 -0.0411654,-0.10039 -0.0411654,-0.222878 0,-0.0190669 0.000598425,-0.0366732 0.00163386,-0.0531181 0.0123071,0.190992 0.089437,0.193925 0.0395315,0.275996zm0.0142638 -0.585429c-0.0188583,-0.0318819 -0.0553976,-0.0747047 -0.119169,-0.141177 -0.383291,-0.399496 -0.766583,-0.799 -1.14987,-1.1985 -0.0916142,-0.0954961 -0.104831,-0.101689 0.00426378,-0.101118l1.14561 1.19404c0.15435,0.160898 0.14952,0.18348 0.119169,0.246756z"/>
    <path id="_359608424" class="fil5" d="M4.94399 2.08684l-1.10098 1.14856c-0.316906,0.330335 -0.0849291,0.154343 -0.0849291,0.556543 0,0.365685 -0.197378,0.210665 0.0884055,0.509236 0.318764,0.333421 0.596488,0.619272 0.915252,0.952693 0.114606,0.125685 0.231531,0.242165 -0.0127953,0.242165l-0.220638 0.000811024 -0.89963 -0.939157c-0.306291,-0.319252 -0.142984,-0.0955079 -0.512362,-0.0955079 -0.396898,0 -0.210622,-0.249736 -0.547756,0.101685l-0.882787 0.924748c-0.068685,-0.000248031 -0.137362,-0.000503937 -0.206047,-0.000751969 -0.172406,0 -0.235622,-0.0263307 -0.0531575,-0.211142l0.976768 -1.0243c0.240335,-0.251098 0.0712126,-0.135965 0.0712126,-0.46048 0,-0.357134 0.199366,-0.229469 -0.0637402,-0.503728 -0.38187,-0.398012 -0.76374,-0.796024 -1.14561,-1.19404 0.131713,0.00069685 0.241295,0.0014252 0.372996,0.00209449 0.0624528,0.000314961 0.114894,0.0196929 0.162425,0.0693465l0.83122 0.866528c0.281579,0.294189 0.137051,0.0895512 0.484476,0.0895512 0.315437,0 0.198114,0.178839 0.445362,-0.0794803 0.257047,-0.268846 0.514094,-0.537689 0.771142,-0.806535 0.150339,-0.15724 0.134528,-0.146307 0.310776,-0.147244l0.300398 -0.00159449z"/>
    <path id="_359608040" class="fil2" d="M4.33282 2.28093c-0.257047,0.268846 -0.514091,0.537689 -0.771142,0.806535 -0.247248,0.258319 -0.129929,0.0794803 -0.445362,0.0794803 -0.347429,0 -0.202902,0.204638 -0.484476,-0.0895512l-0.83122 -0.866528c-0.0475315,-0.0496535 -0.0999764,-0.0690315 -0.162425,-0.0693425 -0.116894,-0.000594488 -0.216374,-0.00123622 -0.329358,-0.0018622l-0.0436378 -0.0454843c0.131709,0.00069685 0.241295,0.0014252 0.372996,0.00209449 0.0624488,0.000314961 0.114894,0.0196929 0.162425,0.0693465l0.83122 0.866528c0.281575,0.294189 0.137047,0.0895512 0.484476,0.0895512 0.315433,0 0.198114,0.178839 0.445362,-0.0794803 0.257051,-0.268846 0.514094,-0.537689 0.771142,-0.806535 0.150339,-0.15724 0.134528,-0.146307 0.310776,-0.147244l0.0723583 -0.000385827c-0.181539,0.011874 -0.252335,0.0560709 -0.383134,0.192878zm0.591193 -0.19398l0.0199764 -0.000106299c-0.00659449,7.87402e-005 -0.0132559,0.000114173 -0.0199764,0.000106299zm-3.60172 3.36844c-0.019252,-0.0288937 0.00901181,-0.0821732 0.10428,-0.178665l0.976772 -1.0243c0.0802047,-0.0837953 0.114772,-0.126791 0.125276,-0.158965 0.0130669,0.0438898 -0.00372835,0.0772205 -0.125276,0.204213l-0.976772 1.0243c-0.058622,0.0593819 -0.0918504,0.102374 -0.10428,0.133417z"/>
    <path id="_359607200" class="fil6" d="M0.401555 2.09623c0.00459843,-0.148996 0.106807,-0.269161 0.234748,-0.277134l0.266854 0.277134 -0.501602 0z"/>
    <path id="_359607272" class="fil6" d="M5.83447 2.09623c-0.00459449,-0.148996 -0.106807,-0.269161 -0.234748,-0.277134l-0.26685 0.277134 0.501598 0z"/>
    <path id="_359607560" class="fil6" d="M0.40328 5.48511c0.00459449,0.149 0.106803,0.269161 0.234744,0.277138l0.266854 -0.277138 -0.501598 0z"/>
    <path id="_359607488" class="fil6" d="M5.82831 5.47461c-0.00459449,0.149 -0.106807,0.269161 -0.234748,0.277138l-0.26685 -0.277138 0.501598 0z"/>
    <rect id="_359607656" class="fil7" x="1.87805" y="3.50767" width="2.47214" height="0.603309"/>
   </g>
   <rect id="_359606960" class="fil3" x="6.70927" y="4.98521" width="1.57464" height="0.79154"/>
   <rect id="_359606936" class="fil8" x="8.00894" y="4.98521" width="0.274969" height="0.79154"/>
   <rect id="_359606792" class="fil9" x="6.70927" y="4.98521" width="0.274969" height="0.79154"/>
   <g>
    <g style="clip-path:url(#id3)">
     <image id="_359978112" transform="matrix(1 0 0 1 0.257811 1.55683)" x="6.3465" y="3.43333" width="1.78602" height="0.108339" xlink:href="X10 logo-svg_Images\X10 logo-svg_ImgID2.png"/>
    </g>
   </g>
   <rect id="_359606768" class="fil5" x="6.60464" y="4.98521" width="1.78391" height="0.106221"/>
   <rect id="_359607104" class="fil10" x="8.11358" y="4.98521" width="0.274969" height="0.106221"/>
   <rect id="_359606072" class="fil11" x="6.60464" y="4.98521" width="0.274969" height="0.106221"/>
   <rect id="_359605880" class="fil12" x="6.70927" y="4.19367" width="1.57464" height="0.79154"/>
   <rect id="_359605856" class="fil13" x="8.00894" y="4.19367" width="0.274969" height="0.79154"/>
   <rect id="_359606288" class="fil14" x="6.70927" y="4.19367" width="0.274969" height="0.79154"/>
   <g>
    <g style="clip-path:url(#id4)">
     <image id="_359977608" transform="matrix(1 0 0 1 0.257811 0.765299)" x="6.3465" y="3.43333" width="1.78602" height="0.108339" xlink:href="X10 logo-svg_Images\X10 logo-svg_ImgID3.png"/>
    </g>
   </g>
   <rect id="_359605760" class="fil12" x="6.60464" y="4.19368" width="1.78391" height="0.106221"/>
   <rect id="_359606048" class="fil12" x="6.70927" y="3.40214" width="1.57464" height="0.79154"/>
   <rect id="_359605496" class="fil14" x="6.70927" y="3.40214" width="0.274969" height="0.79154"/>
   <rect id="_359605184" class="fil13" x="8.00894" y="3.40214" width="0.274969" height="0.79154"/>
   <g>
    <g style="clip-path:url(#id5)">
     <image id="_359977584" transform="matrix(1 0 0 1 0.257811 -0.0262362)" x="6.3465" y="3.43333" width="1.78602" height="0.108339" xlink:href="X10 logo-svg_Images\X10 logo-svg_ImgID4.png"/>
    </g>
   </g>
   <rect id="_359605040" class="fil12" x="6.60464" y="3.40214" width="1.78391" height="0.106221"/>
   <rect id="_359604968" class="fil15" x="8.11358" y="3.40214" width="0.274969" height="0.106221"/>
   <rect id="_359605064" class="fil15" x="8.11358" y="4.19368" width="0.274969" height="0.106221"/>
   <rect id="_359604152" class="fil16" x="6.60464" y="4.19368" width="0.274969" height="0.106221"/>
   <rect id="_359604824" class="fil16" x="6.60464" y="3.40214" width="0.274969" height="0.106221"/>
   <rect id="_359604440" class="fil3" x="6.70927" y="2.61061" width="1.57464" height="0.79154"/>
   <rect id="_359604584" class="fil8" x="8.00894" y="2.61061" width="0.274969" height="0.79154"/>
   <rect id="_359604512" class="fil9" x="6.70927" y="2.61061" width="0.274969" height="0.79154"/>
   <rect id="_359604104" class="fil12" x="6.70927" y="1.81907" width="1.57464" height="0.79154"/>
   <rect id="_359603456" class="fil13" x="8.00894" y="1.81907" width="0.274969" height="0.79154"/>
   <rect id="_359603600" class="fil14" x="6.70927" y="1.81907" width="0.274969" height="0.79154"/>
   <g>
    <g style="clip-path:url(#id6)">
     <image id="_359977248" transform="matrix(1 0 0 1 0.257811 -0.936008)" x="6.3465" y="3.43332" width="1.78602" height="0.108343" xlink:href="X10 logo-svg_Images\X10 logo-svg_ImgID5.png"/>
    </g>
   </g>
   <rect id="_359604056" class="fil5" x="6.60464" y="2.50439" width="1.78391" height="0.106221"/>
   <path id="_359603840" class="fil17" d="M6.13192 1.77893l1.43448 -0.408146 0.266335 0.147929c0.0497638,0.0276339 0.0564291,0.163484 -0.0455276,0.192492l-1.64394 0.467744c-0.090622,0.0257835 -0.184315,-0.0885276 -0.15811,-0.135717l0.146764 -0.264303z"/>
   <path id="_359602904" class="fil3" d="M6.22427 1.66718l1.20415 -0.34261c0.0638346,-0.0181614 0.0816969,-0.0318976 0.147457,0.00694094 0.0845551,0.0499488 0.208472,0.150571 0.246654,0.177335 0.0467559,0.0327835 -0.00961811,0.109579 -0.0619331,0.124461l-1.64394 0.467744c-0.0523031,0.0148819 -0.149961,-0.0205276 -0.128484,-0.0702835 0.0167795,-0.0388543 0.0725787,-0.198469 0.115732,-0.284791 0.032622,-0.0652598 0.0537638,-0.0598425 0.120374,-0.0787953z"/>
   <polygon id="_359602760" class="fil6" points="7.26316,4.83429 7.33676,4.83429 7.33676,5.12056 7.65789,5.12056 7.65789,4.83429 7.73148,4.83429 7.73148,5.19556 7.26316,5.19556 "/>
   <rect id="_359603264" class="fil18" x="7.33676" y="4.83429" width="0.321136" height="0.100354"/>
   <polygon id="_359603024" class="fil19" points="7.42122,4.93966 7.4898,4.93966 7.4898,4.88781 7.50987,4.88781 7.50987,4.93966 7.57343,4.93966 7.57343,4.98649 7.42122,4.98649 "/>
   <polygon id="_359603312" class="fil6" points="7.26316,4.04198 7.33676,4.04198 7.33676,4.32826 7.65789,4.32826 7.65789,4.04198 7.73148,4.04198 7.73148,4.40326 7.26316,4.40326 "/>
   <rect id="_359603192" class="fil18" x="7.33676" y="4.04199" width="0.321136" height="0.100354"/>
   <polygon id="_359602256" class="fil19" points="7.42122,4.14736 7.4898,4.14736 7.4898,4.09551 7.50987,4.09551 7.50987,4.14736 7.57343,4.14736 7.57343,4.19419 7.42122,4.19419 "/>
   <polygon id="_359602088" class="fil6" points="7.26316,3.24889 7.33676,3.24889 7.33676,3.53516 7.65789,3.53516 7.65789,3.24889 7.73148,3.24889 7.73148,3.61016 7.26316,3.61016 "/>
   <rect id="_359602184" class="fil18" x="7.33676" y="3.24888" width="0.321136" height="0.100354"/>
   <polygon id="_359602424" class="fil19" points="7.42122,3.35426 7.4898,3.35426 7.4898,3.30241 7.50987,3.30241 7.50987,3.35426 7.57343,3.35426 7.57343,3.40109 7.42122,3.40109 "/>
   <polygon id="_359602448" class="fil6" points="7.26316,2.35131 7.33676,2.35131 7.33676,2.63759 7.65789,2.63759 7.65789,2.35131 7.73148,2.35131 7.73148,2.71259 7.26316,2.71259 "/>
   <rect id="_359601488" class="fil18" x="7.33676" y="2.35131" width="0.321136" height="0.100354"/>
   <polygon id="_359601656" class="fil19" points="7.42122,2.45669 7.4898,2.45669 7.4898,2.40484 7.50987,2.40484 7.50987,2.45669 7.57343,2.45669 7.57343,2.50352 7.42122,2.50352 "/>
   <rect id="_359601728" class="fil18" x="7.33676" y="5.52656" width="0.321136" height="0.100354"/>
   <polygon id="_359601392" class="fil19" points="7.42122,5.63193 7.4898,5.63193 7.4898,5.58008 7.50987,5.58008 7.50987,5.63193 7.57343,5.63193 7.57343,5.67876 7.42122,5.67876 "/>
   <g>
    <g style="clip-path:url(#id7)">
     <image id="_359977080" transform="matrix(1 0 0 1 0.257811 2.23013)" x="6.3465" y="3.43333" width="1.78602" height="0.108339" xlink:href="X10 logo-svg_Images\X10 logo-svg_ImgID6.png"/>
    </g>
   </g>
   <rect id="_359600576" class="fil5" x="6.60464" y="5.67052" width="1.78391" height="0.106221"/>
   <rect id="_359600672" class="fil10" x="8.11358" y="5.67052" width="0.274969" height="0.106221"/>
   <rect id="_359600288" class="fil11" x="6.60464" y="5.67052" width="0.274969" height="0.106221"/>
   <rect id="_359600816" class="fil10" x="8.11358" y="2.50439" width="0.274969" height="0.106221"/>
   <rect id="_359600552" class="fil11" x="6.60464" y="2.50439" width="0.274969" height="0.106221"/>
   <path id="_359600792" class="fil12" d="M8.8476 3.04846l1.0651 0 0 -0.665039c0,-0.0580669 0.0475118,-0.105579 0.105579,-0.105579l1.01431 0c0.0580669,0 0.105579,0.0475118 0.105579,0.105579l0 0.665039 1.06509 0 0 -1.02043c0,-0.101677 -0.0831811,-0.184858 -0.184858,-0.184858l-2.98595 0c-0.101681,0 -0.184858,0.0831811 -0.184858,0.184858l0 1.02043z"/>
   <path id="_356646824" class="fil7" d="M8.8476 3.04846l1.0651 0 0 2.17177c0,0.0580669 0.0475118,0.105579 0.105579,0.105579l1.01431 0c0.0580669,0 0.105579,-0.0475118 0.105579,-0.105579l0 -2.17177 1.06509 0 0 2.30984c0,0.23015 -0.188295,0.418445 -0.418445,0.418445l-2.51878 0c-0.23015,0 -0.418445,-0.188295 -0.418445,-0.418445l0 -2.30984z"/>
   <path id="_356646056" class="fil20" d="M12.2033 3.04846l-0.393173 0 0 -1.20529 0.0915197 0c0.24028,0 0.301654,0.083189 0.301654,0.184862l0 1.02043z"/>
   <path id="_357434464" class="fil21" d="M8.8476 3.04846l0.393169 0 0 -1.20529 -0.0915157 0c-0.24028,0 -0.301654,0.083189 -0.301654,0.184862l0 1.02043z"/>
   <polygon id="_357433600" class="fil22" points="12.2884,3.04846 11.8101,3.04846 11.8101,3.17415 12.2884,3.17415 "/>
   <polygon id="_357433480" class="fil23" points="8.77164,3.04846 9.24989,3.04846 9.24989,3.17415 8.77164,3.17415 "/>
   <polygon id="_357433312" class="fil6" points="11.3372,2.87026 11.4107,2.87026 11.4107,3.15653 11.7319,3.15653 11.7319,2.87026 11.8055,2.87026 11.8055,3.23153 11.3372,3.23153 "/>
   <rect id="_357437824" class="fil18" x="11.4107" y="2.87025" width="0.321136" height="0.100354"/>
   <polygon id="_357437968" class="fil19" points="11.4952,2.97563 11.5638,2.97563 11.5638,2.92378 11.5839,2.92378 11.5839,2.97563 11.6474,2.97563 11.6474,3.02246 11.4952,3.02246 "/>
   <path id="_357438112" class="fil24" d="M10.0183 2.27784l1.01431 0c0.0580748,0 0.105579,0.0475118 0.105579,0.105579l0 2.83681c0,0.0580748 -0.0475039,0.105579 -0.105579,0.105579l-1.01431 0c-0.0580669,0 -0.105579,-0.0475039 -0.105579,-0.105579l0 -2.83681c0,-0.0580669 0.0475118,-0.105579 0.105579,-0.105579z"/>
   <path id="_357437344" class="fil25" d="M12.2033 3.17415l-0.393173 0 0 2.60259 0.0915197 0c0.165909,0 0.301654,-0.179626 0.301654,-0.399169l0 -2.20343z"/>
   <path id="_357437296" class="fil26" d="M8.8476 3.17415l0.393169 0 0 2.60259 -0.0915157 0c-0.165909,0 -0.301654,-0.179626 -0.301654,-0.399169l0 -2.20343z"/>
   <polygon id="_357437104" class="fil6" points="9.15196,2.87026 9.22555,2.87026 9.22555,3.15653 9.54669,3.15653 9.54669,2.87026 9.62028,2.87026 9.62028,3.23153 9.15196,3.23153 "/>
   <rect id="_357437032" class="fil18" x="9.22555" y="2.87025" width="0.321136" height="0.100354"/>
   <polygon id="_357437200" class="fil19" points="9.31002,2.97563 9.37859,2.97563 9.37859,2.92378 9.39867,2.92378 9.39867,2.97563 9.46222,2.97563 9.46222,3.02246 9.31002,3.02246 "/>
   <path id="_357436672" class="fil7" d="M12.2914 1.97934l0 -0.0783425c0,-0.0663622 -0.054374,-0.120661 -0.120661,-0.120661l-3.29068 0c-0.0662835,0 -0.120661,0.054374 -0.120661,0.120661l0 0.0783425 3.532 0z"/>
  </g>
 </g>
</svg>
